<mxfile host="app.diagrams.net" modified="2020-10-26T07:51:30.845Z" agent="5.0 (Windows NT 10.0; Win64; x64) AppleWebKit/537.36 (KHTML, like Gecko) Chrome/86.0.4240.111 Safari/537.36" etag="54io02u98i8OsWbDD-Xd" version="13.8.0" type="github">
  <diagram id="prtHgNgQTEPvFCAcTncT" name="Page-1">
    <mxGraphModel dx="1730" dy="1033" grid="1" gridSize="10" guides="1" tooltips="1" connect="1" arrows="1" fold="1" page="1" pageScale="1" pageWidth="827" pageHeight="1169" math="0" shadow="0">
      <root>
        <mxCell id="0" />
        <mxCell id="1" parent="0" />
        <mxCell id="5yLHCBV_kyu4TVsvOpOv-3" value="" style="shape=mxgraph.bpmn.shape;html=1;verticalLabelPosition=bottom;labelBackgroundColor=#ffffff;verticalAlign=top;align=center;perimeter=ellipsePerimeter;outlineConnect=0;outline=end;symbol=terminate;" vertex="1" parent="1">
          <mxGeometry x="255" y="80" width="40" height="40" as="geometry" />
        </mxCell>
        <mxCell id="5yLHCBV_kyu4TVsvOpOv-4" value="" style="shape=mxgraph.bpmn.shape;html=1;verticalLabelPosition=bottom;labelBackgroundColor=#ffffff;verticalAlign=top;align=center;perimeter=ellipsePerimeter;outlineConnect=0;outline=end;symbol=terminate;" vertex="1" parent="1">
          <mxGeometry x="55" y="560" width="50" height="50" as="geometry" />
        </mxCell>
        <mxCell id="5yLHCBV_kyu4TVsvOpOv-26" style="edgeStyle=orthogonalEdgeStyle;rounded=0;orthogonalLoop=1;jettySize=auto;html=1;fontSize=18;" edge="1" parent="1" source="5yLHCBV_kyu4TVsvOpOv-5" target="5yLHCBV_kyu4TVsvOpOv-7">
          <mxGeometry relative="1" as="geometry" />
        </mxCell>
        <mxCell id="5yLHCBV_kyu4TVsvOpOv-5" value="" style="shape=mxgraph.bpmn.shape;html=1;verticalLabelPosition=bottom;labelBackgroundColor=#ffffff;verticalAlign=top;align=center;perimeter=ellipsePerimeter;outlineConnect=0;outline=standard;symbol=general;" vertex="1" parent="1">
          <mxGeometry x="30" y="190" width="50" height="50" as="geometry" />
        </mxCell>
        <mxCell id="5yLHCBV_kyu4TVsvOpOv-48" style="edgeStyle=orthogonalEdgeStyle;rounded=0;orthogonalLoop=1;jettySize=auto;html=1;fontSize=18;" edge="1" parent="1" source="5yLHCBV_kyu4TVsvOpOv-7" target="5yLHCBV_kyu4TVsvOpOv-46">
          <mxGeometry relative="1" as="geometry" />
        </mxCell>
        <mxCell id="5yLHCBV_kyu4TVsvOpOv-7" value="&lt;font style=&quot;font-size: 18px;&quot;&gt;访谈&lt;/font&gt;" style="rounded=1;whiteSpace=wrap;html=1;fontSize=18;" vertex="1" parent="1">
          <mxGeometry x="105" y="190" width="110" height="50" as="geometry" />
        </mxCell>
        <mxCell id="5yLHCBV_kyu4TVsvOpOv-54" style="edgeStyle=orthogonalEdgeStyle;rounded=0;orthogonalLoop=1;jettySize=auto;html=1;entryX=0.5;entryY=0;entryDx=0;entryDy=0;fontSize=12;" edge="1" parent="1" source="5yLHCBV_kyu4TVsvOpOv-8" target="5yLHCBV_kyu4TVsvOpOv-53">
          <mxGeometry relative="1" as="geometry" />
        </mxCell>
        <mxCell id="5yLHCBV_kyu4TVsvOpOv-8" value="&lt;font style=&quot;font-size: 18px;&quot;&gt;具体需求[initial]&lt;/font&gt;" style="rounded=0;whiteSpace=wrap;html=1;fontSize=18;" vertex="1" parent="1">
          <mxGeometry x="342" y="190" width="150" height="55" as="geometry" />
        </mxCell>
        <mxCell id="5yLHCBV_kyu4TVsvOpOv-57" style="edgeStyle=orthogonalEdgeStyle;rounded=0;orthogonalLoop=1;jettySize=auto;html=1;entryX=0.198;entryY=1.068;entryDx=0;entryDy=0;entryPerimeter=0;fontSize=12;" edge="1" parent="1" source="5yLHCBV_kyu4TVsvOpOv-9" target="5yLHCBV_kyu4TVsvOpOv-7">
          <mxGeometry relative="1" as="geometry">
            <Array as="points">
              <mxPoint x="80" y="260" />
              <mxPoint x="127" y="260" />
            </Array>
          </mxGeometry>
        </mxCell>
        <mxCell id="5yLHCBV_kyu4TVsvOpOv-58" style="edgeStyle=orthogonalEdgeStyle;rounded=0;orthogonalLoop=1;jettySize=auto;html=1;entryX=0;entryY=0.25;entryDx=0;entryDy=0;fontSize=12;" edge="1" parent="1" source="5yLHCBV_kyu4TVsvOpOv-9" target="5yLHCBV_kyu4TVsvOpOv-53">
          <mxGeometry relative="1" as="geometry" />
        </mxCell>
        <mxCell id="5yLHCBV_kyu4TVsvOpOv-9" value="&lt;font style=&quot;font-size: 18px;&quot;&gt;销售代表&lt;/font&gt;" style="rounded=0;whiteSpace=wrap;html=1;fontSize=18;" vertex="1" parent="1">
          <mxGeometry x="35" y="270" width="90" height="40" as="geometry" />
        </mxCell>
        <mxCell id="5yLHCBV_kyu4TVsvOpOv-40" value="" style="edgeStyle=orthogonalEdgeStyle;rounded=0;orthogonalLoop=1;jettySize=auto;html=1;fontSize=18;" edge="1" parent="1" source="5yLHCBV_kyu4TVsvOpOv-10" target="5yLHCBV_kyu4TVsvOpOv-7">
          <mxGeometry relative="1" as="geometry">
            <Array as="points">
              <mxPoint x="205" y="270" />
              <mxPoint x="170" y="270" />
            </Array>
          </mxGeometry>
        </mxCell>
        <mxCell id="5yLHCBV_kyu4TVsvOpOv-44" style="edgeStyle=orthogonalEdgeStyle;rounded=0;orthogonalLoop=1;jettySize=auto;html=1;entryX=0;entryY=0.25;entryDx=0;entryDy=0;fontSize=18;" edge="1" parent="1" source="5yLHCBV_kyu4TVsvOpOv-10" target="5yLHCBV_kyu4TVsvOpOv-19">
          <mxGeometry relative="1" as="geometry" />
        </mxCell>
        <mxCell id="5yLHCBV_kyu4TVsvOpOv-45" style="edgeStyle=orthogonalEdgeStyle;rounded=0;orthogonalLoop=1;jettySize=auto;html=1;entryX=0;entryY=0.5;entryDx=0;entryDy=0;fontSize=18;" edge="1" parent="1" source="5yLHCBV_kyu4TVsvOpOv-10" target="5yLHCBV_kyu4TVsvOpOv-21">
          <mxGeometry relative="1" as="geometry">
            <Array as="points">
              <mxPoint x="230" y="890" />
            </Array>
          </mxGeometry>
        </mxCell>
        <mxCell id="5yLHCBV_kyu4TVsvOpOv-60" style="edgeStyle=orthogonalEdgeStyle;rounded=0;orthogonalLoop=1;jettySize=auto;html=1;entryX=0;entryY=0.75;entryDx=0;entryDy=0;fontSize=12;" edge="1" parent="1" source="5yLHCBV_kyu4TVsvOpOv-10" target="5yLHCBV_kyu4TVsvOpOv-53">
          <mxGeometry relative="1" as="geometry">
            <Array as="points">
              <mxPoint x="230" y="308" />
              <mxPoint x="331" y="308" />
            </Array>
          </mxGeometry>
        </mxCell>
        <mxCell id="5yLHCBV_kyu4TVsvOpOv-10" value="涉及的客户" style="rounded=0;whiteSpace=wrap;html=1;fontSize=18;" vertex="1" parent="1">
          <mxGeometry x="170" y="355" width="120" height="50" as="geometry" />
        </mxCell>
        <mxCell id="5yLHCBV_kyu4TVsvOpOv-29" style="edgeStyle=orthogonalEdgeStyle;rounded=0;orthogonalLoop=1;jettySize=auto;html=1;fontSize=18;" edge="1" parent="1" source="5yLHCBV_kyu4TVsvOpOv-11" target="5yLHCBV_kyu4TVsvOpOv-14">
          <mxGeometry relative="1" as="geometry" />
        </mxCell>
        <mxCell id="5yLHCBV_kyu4TVsvOpOv-11" value="成本核算" style="rounded=1;whiteSpace=wrap;html=1;fontSize=18;" vertex="1" parent="1">
          <mxGeometry x="354" y="362.5" width="126" height="40" as="geometry" />
        </mxCell>
        <mxCell id="5yLHCBV_kyu4TVsvOpOv-12" value="" style="strokeWidth=2;html=1;shape=mxgraph.flowchart.annotation_2;align=left;labelPosition=right;pointerEvents=1;fontSize=18;rotation=90;" vertex="1" parent="1">
          <mxGeometry x="459" y="390" width="13.5" height="10" as="geometry" />
        </mxCell>
        <mxCell id="5yLHCBV_kyu4TVsvOpOv-31" style="edgeStyle=orthogonalEdgeStyle;rounded=0;orthogonalLoop=1;jettySize=auto;html=1;entryX=0.5;entryY=0;entryDx=0;entryDy=0;fontSize=18;" edge="1" parent="1" source="5yLHCBV_kyu4TVsvOpOv-14" target="5yLHCBV_kyu4TVsvOpOv-15">
          <mxGeometry relative="1" as="geometry" />
        </mxCell>
        <mxCell id="5yLHCBV_kyu4TVsvOpOv-14" value="预算[initial]" style="rounded=0;whiteSpace=wrap;html=1;fontSize=18;" vertex="1" parent="1">
          <mxGeometry x="360.5" y="430" width="113" height="40" as="geometry" />
        </mxCell>
        <mxCell id="5yLHCBV_kyu4TVsvOpOv-62" style="edgeStyle=orthogonalEdgeStyle;rounded=0;orthogonalLoop=1;jettySize=auto;html=1;fontSize=12;" edge="1" parent="1" source="5yLHCBV_kyu4TVsvOpOv-15" target="5yLHCBV_kyu4TVsvOpOv-61">
          <mxGeometry relative="1" as="geometry" />
        </mxCell>
        <mxCell id="5yLHCBV_kyu4TVsvOpOv-15" value="" style="rhombus;whiteSpace=wrap;html=1;fontSize=18;" vertex="1" parent="1">
          <mxGeometry x="402" y="490" width="30" height="50" as="geometry" />
        </mxCell>
        <mxCell id="5yLHCBV_kyu4TVsvOpOv-38" style="edgeStyle=orthogonalEdgeStyle;rounded=0;orthogonalLoop=1;jettySize=auto;html=1;entryX=1;entryY=0.5;entryDx=0;entryDy=0;fontSize=18;" edge="1" parent="1" source="5yLHCBV_kyu4TVsvOpOv-16" target="5yLHCBV_kyu4TVsvOpOv-15">
          <mxGeometry relative="1" as="geometry" />
        </mxCell>
        <mxCell id="5yLHCBV_kyu4TVsvOpOv-16" value="预算[actual]" style="rounded=0;html=1;fontSize=18;" vertex="1" parent="1">
          <mxGeometry x="600" y="497.5" width="110" height="35" as="geometry" />
        </mxCell>
        <mxCell id="5yLHCBV_kyu4TVsvOpOv-36" style="edgeStyle=orthogonalEdgeStyle;rounded=0;orthogonalLoop=1;jettySize=auto;html=1;entryX=0.5;entryY=1;entryDx=0;entryDy=0;fontSize=18;" edge="1" parent="1" source="5yLHCBV_kyu4TVsvOpOv-17" target="5yLHCBV_kyu4TVsvOpOv-16">
          <mxGeometry relative="1" as="geometry">
            <Array as="points">
              <mxPoint x="655" y="550" />
              <mxPoint x="655" y="550" />
            </Array>
          </mxGeometry>
        </mxCell>
        <mxCell id="5yLHCBV_kyu4TVsvOpOv-17" value="重新核算成本" style="rounded=1;whiteSpace=wrap;html=1;fontSize=18;" vertex="1" parent="1">
          <mxGeometry x="640" y="597.5" width="130" height="60" as="geometry" />
        </mxCell>
        <mxCell id="5yLHCBV_kyu4TVsvOpOv-37" style="edgeStyle=orthogonalEdgeStyle;rounded=0;orthogonalLoop=1;jettySize=auto;html=1;entryX=0.75;entryY=0;entryDx=0;entryDy=0;fontSize=18;" edge="1" parent="1" source="5yLHCBV_kyu4TVsvOpOv-18" target="5yLHCBV_kyu4TVsvOpOv-17">
          <mxGeometry relative="1" as="geometry" />
        </mxCell>
        <mxCell id="5yLHCBV_kyu4TVsvOpOv-39" style="edgeStyle=orthogonalEdgeStyle;rounded=0;orthogonalLoop=1;jettySize=auto;html=1;entryX=1;entryY=0.5;entryDx=0;entryDy=0;fontSize=18;" edge="1" parent="1" source="5yLHCBV_kyu4TVsvOpOv-18" target="5yLHCBV_kyu4TVsvOpOv-11">
          <mxGeometry relative="1" as="geometry" />
        </mxCell>
        <mxCell id="5yLHCBV_kyu4TVsvOpOv-56" style="edgeStyle=orthogonalEdgeStyle;rounded=0;orthogonalLoop=1;jettySize=auto;html=1;entryX=1;entryY=0.25;entryDx=0;entryDy=0;fontSize=12;" edge="1" parent="1" source="5yLHCBV_kyu4TVsvOpOv-18" target="5yLHCBV_kyu4TVsvOpOv-53">
          <mxGeometry relative="1" as="geometry">
            <Array as="points">
              <mxPoint x="720" y="288" />
              <mxPoint x="566" y="288" />
            </Array>
          </mxGeometry>
        </mxCell>
        <mxCell id="5yLHCBV_kyu4TVsvOpOv-18" value="相关部门" style="rounded=0;whiteSpace=wrap;html=1;fontSize=18;" vertex="1" parent="1">
          <mxGeometry x="690" y="360" width="100" height="45" as="geometry" />
        </mxCell>
        <mxCell id="5yLHCBV_kyu4TVsvOpOv-33" style="edgeStyle=orthogonalEdgeStyle;rounded=0;orthogonalLoop=1;jettySize=auto;html=1;fontSize=18;" edge="1" parent="1" source="5yLHCBV_kyu4TVsvOpOv-19" target="5yLHCBV_kyu4TVsvOpOv-20">
          <mxGeometry relative="1" as="geometry" />
        </mxCell>
        <mxCell id="5yLHCBV_kyu4TVsvOpOv-19" value="合同洽谈" style="rounded=1;whiteSpace=wrap;html=1;fontSize=18;" vertex="1" parent="1">
          <mxGeometry x="354" y="690" width="120" height="60" as="geometry" />
        </mxCell>
        <mxCell id="5yLHCBV_kyu4TVsvOpOv-34" style="edgeStyle=orthogonalEdgeStyle;rounded=0;orthogonalLoop=1;jettySize=auto;html=1;fontSize=18;" edge="1" parent="1" source="5yLHCBV_kyu4TVsvOpOv-20" target="5yLHCBV_kyu4TVsvOpOv-21">
          <mxGeometry relative="1" as="geometry" />
        </mxCell>
        <mxCell id="5yLHCBV_kyu4TVsvOpOv-41" style="edgeStyle=orthogonalEdgeStyle;rounded=0;orthogonalLoop=1;jettySize=auto;html=1;fontSize=18;" edge="1" parent="1" source="5yLHCBV_kyu4TVsvOpOv-20" target="5yLHCBV_kyu4TVsvOpOv-22">
          <mxGeometry relative="1" as="geometry" />
        </mxCell>
        <mxCell id="5yLHCBV_kyu4TVsvOpOv-20" value="" style="rhombus;whiteSpace=wrap;html=1;fontSize=18;" vertex="1" parent="1">
          <mxGeometry x="398" y="780" width="34" height="50" as="geometry" />
        </mxCell>
        <mxCell id="5yLHCBV_kyu4TVsvOpOv-35" style="edgeStyle=orthogonalEdgeStyle;rounded=0;orthogonalLoop=1;jettySize=auto;html=1;entryX=0.5;entryY=1;entryDx=0;entryDy=0;fontSize=18;" edge="1" parent="1" source="5yLHCBV_kyu4TVsvOpOv-21" target="5yLHCBV_kyu4TVsvOpOv-17">
          <mxGeometry relative="1" as="geometry" />
        </mxCell>
        <mxCell id="5yLHCBV_kyu4TVsvOpOv-21" value="具体需求[actual]" style="rounded=0;whiteSpace=wrap;html=1;fontSize=18;" vertex="1" parent="1">
          <mxGeometry x="339" y="860" width="150" height="60" as="geometry" />
        </mxCell>
        <mxCell id="5yLHCBV_kyu4TVsvOpOv-42" style="edgeStyle=orthogonalEdgeStyle;rounded=0;orthogonalLoop=1;jettySize=auto;html=1;fontSize=18;" edge="1" parent="1" source="5yLHCBV_kyu4TVsvOpOv-22" target="5yLHCBV_kyu4TVsvOpOv-4">
          <mxGeometry relative="1" as="geometry" />
        </mxCell>
        <mxCell id="5yLHCBV_kyu4TVsvOpOv-22" value="合同" style="rounded=0;whiteSpace=wrap;html=1;fontSize=18;" vertex="1" parent="1">
          <mxGeometry x="20" y="665" width="120" height="60" as="geometry" />
        </mxCell>
        <mxCell id="5yLHCBV_kyu4TVsvOpOv-65" style="edgeStyle=orthogonalEdgeStyle;rounded=0;orthogonalLoop=1;jettySize=auto;html=1;entryX=1;entryY=0.5;entryDx=0;entryDy=0;fontSize=12;" edge="1" parent="1" source="5yLHCBV_kyu4TVsvOpOv-23" target="5yLHCBV_kyu4TVsvOpOv-19">
          <mxGeometry relative="1" as="geometry" />
        </mxCell>
        <mxCell id="5yLHCBV_kyu4TVsvOpOv-66" style="edgeStyle=orthogonalEdgeStyle;rounded=0;orthogonalLoop=1;jettySize=auto;html=1;fontSize=12;" edge="1" parent="1" source="5yLHCBV_kyu4TVsvOpOv-23" target="5yLHCBV_kyu4TVsvOpOv-64">
          <mxGeometry relative="1" as="geometry" />
        </mxCell>
        <mxCell id="5yLHCBV_kyu4TVsvOpOv-23" value="销售主管" style="rounded=0;whiteSpace=wrap;html=1;fontSize=18;" vertex="1" parent="1">
          <mxGeometry x="528.5" y="700" width="90" height="40" as="geometry" />
        </mxCell>
        <mxCell id="5yLHCBV_kyu4TVsvOpOv-47" style="edgeStyle=orthogonalEdgeStyle;rounded=0;orthogonalLoop=1;jettySize=auto;html=1;fontSize=18;" edge="1" parent="1" source="5yLHCBV_kyu4TVsvOpOv-46" target="5yLHCBV_kyu4TVsvOpOv-8">
          <mxGeometry relative="1" as="geometry" />
        </mxCell>
        <mxCell id="5yLHCBV_kyu4TVsvOpOv-50" style="edgeStyle=orthogonalEdgeStyle;rounded=0;orthogonalLoop=1;jettySize=auto;html=1;entryX=0.5;entryY=1;entryDx=0;entryDy=0;fontSize=18;" edge="1" parent="1" source="5yLHCBV_kyu4TVsvOpOv-46" target="5yLHCBV_kyu4TVsvOpOv-3">
          <mxGeometry relative="1" as="geometry" />
        </mxCell>
        <mxCell id="5yLHCBV_kyu4TVsvOpOv-46" value="" style="rhombus;whiteSpace=wrap;html=1;fontSize=18;" vertex="1" parent="1">
          <mxGeometry x="260" y="195" width="30" height="40" as="geometry" />
        </mxCell>
        <mxCell id="5yLHCBV_kyu4TVsvOpOv-49" value="&lt;font style=&quot;font-size: 12px&quot;&gt;[感兴趣]&lt;/font&gt;" style="text;html=1;strokeColor=none;fillColor=none;align=center;verticalAlign=middle;whiteSpace=wrap;rounded=0;fontSize=18;" vertex="1" parent="1">
          <mxGeometry x="274" y="187.5" width="80" height="20" as="geometry" />
        </mxCell>
        <mxCell id="5yLHCBV_kyu4TVsvOpOv-51" value="&lt;font style=&quot;font-size: 12px&quot;&gt;&lt;br&gt;不感兴趣&lt;br&gt;&lt;br&gt;&lt;/font&gt;" style="text;html=1;strokeColor=none;fillColor=none;align=center;verticalAlign=bottom;whiteSpace=wrap;rounded=0;fontSize=12;horizontal=0;rotation=90;" vertex="1" parent="1">
          <mxGeometry x="274" y="167.5" width="40" height="20" as="geometry" />
        </mxCell>
        <mxCell id="5yLHCBV_kyu4TVsvOpOv-55" style="edgeStyle=orthogonalEdgeStyle;rounded=0;orthogonalLoop=1;jettySize=auto;html=1;fontSize=12;" edge="1" parent="1" source="5yLHCBV_kyu4TVsvOpOv-53" target="5yLHCBV_kyu4TVsvOpOv-11">
          <mxGeometry relative="1" as="geometry" />
        </mxCell>
        <mxCell id="5yLHCBV_kyu4TVsvOpOv-53" value="&lt;font style=&quot;font-size: 18px&quot;&gt;提问题&lt;/font&gt;" style="rounded=1;whiteSpace=wrap;html=1;fontSize=12;" vertex="1" parent="1">
          <mxGeometry x="372" y="277.5" width="90" height="40" as="geometry" />
        </mxCell>
        <mxCell id="5yLHCBV_kyu4TVsvOpOv-63" style="edgeStyle=orthogonalEdgeStyle;rounded=0;orthogonalLoop=1;jettySize=auto;html=1;entryX=0.525;entryY=0.167;entryDx=0;entryDy=0;entryPerimeter=0;fontSize=12;" edge="1" parent="1" source="5yLHCBV_kyu4TVsvOpOv-61" target="5yLHCBV_kyu4TVsvOpOv-19">
          <mxGeometry relative="1" as="geometry" />
        </mxCell>
        <mxCell id="5yLHCBV_kyu4TVsvOpOv-70" style="edgeStyle=orthogonalEdgeStyle;rounded=0;orthogonalLoop=1;jettySize=auto;html=1;fontSize=12;" edge="1" parent="1" source="5yLHCBV_kyu4TVsvOpOv-61" target="5yLHCBV_kyu4TVsvOpOv-64">
          <mxGeometry relative="1" as="geometry" />
        </mxCell>
        <mxCell id="5yLHCBV_kyu4TVsvOpOv-61" value="" style="rhombus;whiteSpace=wrap;html=1;fontSize=12;" vertex="1" parent="1">
          <mxGeometry x="404" y="610" width="26" height="45" as="geometry" />
        </mxCell>
        <mxCell id="5yLHCBV_kyu4TVsvOpOv-64" value="&lt;font style=&quot;font-size: 18px&quot;&gt;合同洽谈&lt;/font&gt;" style="rounded=1;whiteSpace=wrap;html=1;fontSize=12;" vertex="1" parent="1">
          <mxGeometry x="520" y="607.5" width="107" height="50" as="geometry" />
        </mxCell>
        <mxCell id="5yLHCBV_kyu4TVsvOpOv-69" style="edgeStyle=orthogonalEdgeStyle;rounded=0;orthogonalLoop=1;jettySize=auto;html=1;fontSize=12;" edge="1" parent="1" source="5yLHCBV_kyu4TVsvOpOv-67" target="5yLHCBV_kyu4TVsvOpOv-64">
          <mxGeometry relative="1" as="geometry" />
        </mxCell>
        <mxCell id="5yLHCBV_kyu4TVsvOpOv-67" value="&lt;font style=&quot;font-size: 18px&quot;&gt;部门经理&lt;/font&gt;" style="rounded=0;whiteSpace=wrap;html=1;fontSize=12;" vertex="1" parent="1">
          <mxGeometry x="528.5" y="542.5" width="90" height="45" as="geometry" />
        </mxCell>
        <mxCell id="5yLHCBV_kyu4TVsvOpOv-71" value="[金额大于20万]" style="text;html=1;strokeColor=none;fillColor=none;align=center;verticalAlign=middle;whiteSpace=wrap;rounded=0;fontSize=12;" vertex="1" parent="1">
          <mxGeometry x="314" y="665" width="130" height="20" as="geometry" />
        </mxCell>
        <mxCell id="5yLHCBV_kyu4TVsvOpOv-72" value="[金额小于20万]" style="text;html=1;strokeColor=none;fillColor=none;align=center;verticalAlign=middle;whiteSpace=wrap;rounded=0;fontSize=12;" vertex="1" parent="1">
          <mxGeometry x="404" y="597.5" width="130" height="20" as="geometry" />
        </mxCell>
        <mxCell id="5yLHCBV_kyu4TVsvOpOv-74" value="&lt;font style=&quot;font-size: 14px&quot;&gt;[达成共识]&lt;/font&gt;" style="text;html=1;strokeColor=none;fillColor=none;align=center;verticalAlign=middle;whiteSpace=wrap;rounded=0;fontSize=12;" vertex="1" parent="1">
          <mxGeometry x="260" y="780" width="80" height="20" as="geometry" />
        </mxCell>
        <mxCell id="5yLHCBV_kyu4TVsvOpOv-75" value="[未达成共识]" style="text;html=1;strokeColor=none;fillColor=none;align=center;verticalAlign=middle;whiteSpace=wrap;rounded=0;fontSize=12;" vertex="1" parent="1">
          <mxGeometry x="414" y="830" width="100" height="20" as="geometry" />
        </mxCell>
        <mxCell id="5yLHCBV_kyu4TVsvOpOv-76" value="" style="strokeWidth=2;html=1;shape=mxgraph.flowchart.annotation_2;align=left;labelPosition=right;pointerEvents=1;fontSize=18;rotation=90;" vertex="1" parent="1">
          <mxGeometry x="750" y="645" width="13.5" height="10" as="geometry" />
        </mxCell>
      </root>
    </mxGraphModel>
  </diagram>
</mxfile>
